<svg width="1142" height="226" viewBox="0 0 1142 226" fill="none" xmlns="http://www.w3.org/2000/svg">
  <rect width="1142" height="226" fill="transparent"/>
  <g transform="translate(8 10)">
    <path d="M118 0C95 24 83 48 77 76C104 77 127 82 148 92C155 70 167 49 189 26L173 11C155 30 144 49 138 68C124 62 108 58 90 56C98 39 109 24 129 7L118 0Z" fill="#135BBB"/>
    <path d="M57 24C39 41 25 63 16 90C39 98 58 110 75 126C84 101 96 81 114 62L99 49C86 63 77 78 71 95C62 87 52 80 40 74C47 59 58 46 71 34L57 24Z" fill="#135BBB"/>
    <path d="M20 67C8 84 1 104 0 126C20 136 36 150 51 168C52 145 58 124 70 105L56 96C48 109 44 124 43 140C34 129 23 120 9 112C11 96 16 81 28 69L20 67Z" fill="#135BBB"/>
    <path d="M30 144C31 164 37 182 48 198C70 194 90 194 110 198C94 182 84 165 79 145H61C65 157 71 168 79 178C69 178 58 179 46 182C38 169 33 156 31 142L30 144Z" fill="#135BBB"/>
    <path d="M86 176C103 191 122 201 146 206C159 187 176 171 198 159C174 157 154 151 138 140L128 154C140 162 153 167 168 171C159 178 151 187 143 198C123 193 107 186 92 173L86 176Z" fill="#135BBB"/>
    <path d="M162 158C182 159 200 154 218 143C213 120 214 98 220 75C204 93 186 106 166 115L174 131C187 125 198 117 208 106C206 118 206 130 208 143C193 151 178 156 160 157L162 158Z" fill="#135BBB"/>
    <path d="M201 103C215 90 226 74 235 54C223 37 208 22 189 10C195 33 195 55 190 77L206 81C209 66 209 53 206 39C214 46 221 54 227 63C221 79 213 92 200 103H201Z" fill="#135BBB"/>
  </g>
  <g fill="#0F172A">
    <text x="300" y="82" font-family="Tahoma, Arial, sans-serif" font-size="86" font-weight="700">جامعة حائل</text>
    <text x="316" y="190" font-family="Arial, Helvetica, sans-serif" font-size="72" font-weight="700" letter-spacing="0.5">University</text>
  </g>
</svg>
